<?xml version="1.0" standalone="no"?>
<svg xmlns="http://www.w3.org/2000/svg" width="24" height="24"><rect width="24" height="24" opacity="0"></rect><g><path d="M10.66 13.08Q9.48 13.08 8.5 13.58Q7.51 14.09 6.8 14.88Q6.1 15.67 5.69 16.58Q7.25 18.74 8.66 19.88Q10.08 21.02 11.86 21.48Q12 21.53 12.19 21.48Q13.92 20.95 15.37 19.84Q16.82 18.72 18.24 16.68Q17.83 15.72 17.17 14.92Q16.51 14.11 15.54 13.6Q14.57 13.08 13.32 13.08L10.66 13.08ZM11.98 5.28Q11.02 5.28 10.21 5.76Q9.41 6.24 8.93 7.04Q8.45 7.85 8.45 8.81Q8.45 9.77 8.93 10.58Q9.41 11.4 10.21 11.88Q11.02 12.36 11.98 12.36Q12.94 12.36 13.75 11.88Q14.57 11.4 15.05 10.58Q15.53 9.77 15.53 8.81Q15.53 7.85 15.05 7.04Q14.57 6.24 13.75 5.76Q12.94 5.28 11.98 5.28Z" fill="rgba(0,0,0,0.9019607843137255)"></path></g><g><path d="M12.96 1.2Q12.5 0.98 12.02 0.98Q11.54 0.98 11.06 1.2L3.89 4.54Q3.34 4.78 3.02 5.28Q2.71 5.78 2.71 6.41L2.71 11.18Q2.71 13.82 3.82 16.24Q4.92 18.65 6.9 20.4Q8.88 22.15 11.42 22.92Q12.02 23.06 12.6 22.92Q15.17 22.15 17.14 20.41Q19.1 18.67 20.2 16.28Q21.29 13.9 21.29 11.21L21.29 6.41Q21.29 5.78 20.96 5.29Q20.64 4.8 20.11 4.56L12.96 1.2ZM19.8 11.21Q19.8 12.79 19.39 14.21Q18.98 15.62 18.24 16.68Q16.82 18.72 15.37 19.84Q13.92 20.95 12.19 21.48Q12 21.53 11.86 21.48Q10.08 21.02 8.66 19.88Q7.25 18.74 5.69 16.58Q5.02 15.5 4.61 14.1Q4.2 12.7 4.2 11.21L4.2 6.41Q4.2 6.05 4.54 5.9L11.69 2.57Q12.02 2.42 12.34 2.57L19.49 5.93Q19.63 5.98 19.72 6.12Q19.8 6.26 19.8 6.43L19.8 11.21Z" fill="rgba(0,0,0,0.45098039215686275)"></path></g></svg>