<?xml version="1.0" standalone="no"?>
<svg xmlns="http://www.w3.org/2000/svg" width="48" height="48"><rect width="48" height="48" opacity="0"></rect><g><path d="M13.82 20.59Q12.77 20.59 12 21.34Q11.23 22.08 11.23 23.18Q11.23 24.24 12 25.01Q12.77 25.78 13.82 25.78Q14.93 25.78 15.7 25.01Q16.46 24.24 16.46 23.18Q16.46 22.13 15.7 21.36Q14.93 20.59 13.82 20.59ZM21.41 23.18Q21.41 24.24 22.18 25.01Q22.94 25.78 24 25.78Q25.1 25.78 25.85 25.01Q26.59 24.24 26.59 23.18Q26.59 22.08 25.85 21.34Q25.1 20.59 24 20.59Q22.94 20.59 22.18 21.34Q21.41 22.08 21.41 23.18ZM31.58 23.18Q31.58 24.24 32.35 25.01Q33.12 25.78 34.18 25.78Q35.28 25.78 36.02 25.01Q36.77 24.24 36.77 23.18Q36.77 22.08 36.02 21.34Q35.28 20.59 34.18 20.59Q33.12 20.59 32.35 21.34Q31.58 22.08 31.58 23.18Z" fill="rgba(0,0,0,0.9019607843137255)"></path></g><g><path d="M3.55 22.7Q3.55 26.45 5.35 29.95Q7.15 33.46 10.32 36.05Q10.9 36.48 10.61 37.61Q10.32 38.74 9.6 40.61L9.31 41.28Q9.17 41.66 9.19 42.1Q9.22 42.53 9.5 42.82Q9.84 43.25 10.13 43.32Q10.42 43.39 10.94 43.3Q12.96 42.86 14.33 42.34Q15.7 41.81 17.18 41.04L17.33 40.94Q17.76 40.7 18.24 40.49Q18.72 40.27 19.06 40.22Q21.41 40.7 24 40.7Q29.52 40.7 34.22 38.28Q38.93 35.86 41.71 31.73Q44.5 27.6 44.5 22.7Q44.5 17.81 41.71 13.66Q38.93 9.5 34.22 7.08Q29.52 4.66 24 4.66Q18.48 4.66 13.78 7.08Q9.07 9.5 6.31 13.66Q3.55 17.81 3.55 22.7ZM6.67 22.7Q6.67 18.62 9 15.17Q11.33 11.71 15.31 9.67Q19.3 7.63 24 7.63Q28.7 7.63 32.66 9.67Q36.62 11.71 38.95 15.17Q41.28 18.62 41.28 22.7Q41.28 26.78 38.95 30.24Q36.62 33.7 32.66 35.71Q28.7 37.73 24 37.73Q21.84 37.73 19.73 37.3Q18.91 37.1 18.14 37.37Q17.38 37.63 16.18 38.26Q14.02 39.26 13.2 39.6L13.25 39.5Q13.78 37.68 13.63 36.17Q13.49 34.66 12.19 33.7Q9.55 31.58 8.11 28.7Q6.67 25.82 6.67 22.7Z" fill="rgba(0,0,0,0.45098039215686275)"></path></g></svg>