<?xml version="1.0" standalone="no"?>
<svg xmlns="http://www.w3.org/2000/svg" width="48" height="48"><rect width="48" height="48" opacity="0"></rect><g><path d="M9.6 36.05Q8.54 36.05 7.78 35.28Q7.01 34.51 7.01 33.41L7.01 14.64Q7.01 13.54 7.78 12.79Q8.54 12.05 9.6 12.05L19.92 12.05L19.92 9.02L9.6 9.02Q8.11 9.02 6.82 9.79Q5.52 10.56 4.75 11.86Q3.98 13.15 3.98 14.64L3.98 33.41Q3.98 34.94 4.75 36.24Q5.52 37.54 6.79 38.28Q8.06 39.02 9.6 39.02L19.92 39.02L19.92 36.05L9.6 36.05ZM28.08 9.02L28.08 12.05L38.4 12.05Q39.5 12.05 40.25 12.79Q40.99 13.54 40.99 14.64L40.99 33.41Q40.99 34.51 40.22 35.28Q39.46 36.05 38.4 36.05L28.08 36.05L28.08 39.02L38.4 39.02Q39.94 39.02 41.21 38.28Q42.48 37.54 43.25 36.24Q44.02 34.94 44.02 33.41L44.02 14.64Q44.02 13.15 43.25 11.86Q42.48 10.56 41.18 9.79Q39.89 9.02 38.4 9.02ZM25.49 41.42L25.49 6.58L27.02 6.58Q27.65 6.58 28.08 6.14Q28.51 5.71 28.51 5.09Q28.51 4.46 28.08 4.03Q27.65 3.6 27.02 3.6L20.98 3.6Q20.35 3.6 19.9 4.03Q19.44 4.46 19.44 5.09Q19.44 5.71 19.9 6.14Q20.35 6.58 20.98 6.58L22.51 6.58L22.51 41.42L20.98 41.42Q20.35 41.42 19.9 41.86Q19.44 42.29 19.44 42.91Q19.44 43.54 19.9 43.97Q20.35 44.4 20.98 44.4L24 44.4L27.02 44.4Q27.65 44.4 28.08 43.97Q28.51 43.54 28.51 42.91Q28.51 42.29 28.08 41.86Q27.65 41.42 27.02 41.42Z" fill="rgba(0,0,0,0.9019607843137255)"></path></g></svg>