<?xml version="1.0" standalone="no"?>
<svg xmlns="http://www.w3.org/2000/svg" width="48" height="48"><rect width="48" height="48" opacity="0"></rect><g><path d="M18.19 12.1Q18.82 12.1 19.25 11.66Q19.68 11.23 19.68 10.61Q19.68 8.78 21 7.44Q22.32 6.1 24.19 6.1Q26.06 6.1 27.38 7.44Q28.7 8.78 28.7 10.61Q28.7 11.23 29.14 11.66Q29.57 12.1 30.19 12.1L41.09 12.1Q41.71 12.1 42.14 11.66Q42.58 11.23 42.58 10.61Q42.58 9.98 42.14 9.55Q41.71 9.12 41.09 9.12L31.54 9.12Q31.01 6.53 28.94 4.82Q26.88 3.12 24.14 3.12Q21.46 3.12 19.39 4.82Q17.33 6.53 16.8 9.12L6.86 9.12Q6.24 9.12 5.81 9.55Q5.38 9.98 5.38 10.61Q5.38 11.23 5.81 11.66Q6.24 12.1 6.86 12.1L18.19 12.1ZM27.5 35.76Q28.13 35.76 28.56 35.35Q28.99 34.94 29.04 34.32L29.52 20.3Q29.57 19.68 29.11 19.22Q28.66 18.77 28.03 18.72Q27.41 18.72 26.98 19.13Q26.54 19.54 26.54 20.16L26.02 34.18Q25.97 34.8 26.42 35.26Q26.88 35.71 27.5 35.76ZM20.54 35.76Q21.17 35.71 21.62 35.26Q22.08 34.8 22.03 34.18L21.46 20.16Q21.46 19.54 21.02 19.13Q20.59 18.72 19.92 18.72Q19.3 18.77 18.86 19.22Q18.43 19.68 18.48 20.3L19.01 34.32Q19.06 34.9 19.49 35.33Q19.92 35.76 20.54 35.76ZM34.42 39.6Q34.32 40.56 33.6 41.21Q32.88 41.86 31.92 41.86L16.08 41.86Q15.07 41.86 14.38 41.21Q13.68 40.56 13.58 39.6L11.62 14.45L8.64 14.45L10.61 39.84Q10.8 42 12.36 43.44Q13.92 44.88 16.08 44.88L31.92 44.88Q34.08 44.88 35.62 43.44Q37.15 42 37.39 39.84L39.31 14.45L36.34 14.45L34.42 39.6Z" fill="rgba(0,0,0,0.9019607843137255)"></path></g></svg>